<?xml version="1.0" standalone="no"?>
<!DOCTYPE svg PUBLIC "-//W3C//DTD SVG 20010904//EN"
 "http://www.w3.org/TR/2001/REC-SVG-20010904/DTD/svg10.dtd">
<svg version="1.0" xmlns="http://www.w3.org/2000/svg"
 width="800.000000pt" height="800.000000pt" viewBox="0 0 800.000000 800.000000"
 preserveAspectRatio="xMidYMid meet">
<g transform="translate(0.000000,800.000000) scale(0.100000,-0.100000)"
fill="#000000" stroke="none">
<path d="M3603 7935 c-1547 -154 -2866 -1194 -3372 -2660 -88 -255 -141 -479
-183 -774 -20 -137 -23 -199 -23 -506 0 -375 8 -468 61 -750 148 -774 528
-1489 1089 -2050 581 -581 1333 -972 2135 -1109 264 -46 339 -51 695 -51 356
0 431 5 695 51 1359 233 2511 1169 3021 2455 120 302 205 646 251 1009 18 143
18 737 0 880 -87 694 -320 1302 -706 1845 -670 944 -1719 1549 -2874 1660
-190 18 -603 18 -789 0z"/>
</g>
</svg>
