<?xml version="1.0" standalone="no"?>
<!DOCTYPE svg PUBLIC "-//W3C//DTD SVG 20010904//EN"
 "http://www.w3.org/TR/2001/REC-SVG-20010904/DTD/svg10.dtd">
<svg version="1.0" xmlns="http://www.w3.org/2000/svg"
 width="484.000000pt" height="481.000000pt" viewBox="0 0 484.000000 481.000000"
 preserveAspectRatio="xMidYMid meet">
<metadata>
Created by potrace 1.16, written by Peter Selinger 2001-2019
</metadata>
<g transform="translate(0.000000,481.000000) scale(0.100000,-0.100000)"
fill="#000000" stroke="none">
<path d="M2140 4790 c-30 -4 -89 -13 -130 -19 -357 -54 -762 -235 -1067 -477
-324 -258 -581 -589 -727 -938 -87 -206 -125 -336 -167 -571 -19 -104 -22
-156 -22 -395 0 -241 3 -290 22 -400 36 -199 74 -334 140 -500 124 -308 274
-541 506 -779 317 -326 716 -559 1143 -667 170 -42 225 -46 652 -42 l405 5
120 31 c191 50 413 134 535 202 277 156 382 233 585 429 352 340 576 756 681
1266 17 78 19 138 19 460 -1 346 -2 377 -23 475 -82 382 -235 715 -464 1007
-90 115 -283 309 -403 405 -88 70 -180 138 -187 138 -3 0 -47 25 -98 56 -141
85 -174 101 -320 159 -204 80 -308 109 -504 142 -104 17 -605 27 -696 13z
m465 -161 c663 -58 1216 -355 1627 -874 227 -287 379 -640 445 -1035 24 -147
24 -513 0 -660 -66 -395 -218 -747 -445 -1035 -318 -403 -735 -679 -1216 -806
-345 -91 -746 -97 -1085 -18 -444 104 -808 312 -1132 645 -757 781 -835 1999
-183 2875 91 122 252 291 379 397 436 366 1049 560 1610 511z"/>
<path d="M2320 3301 c-70 -23 -129 -56 -228 -125 -148 -104 -305 -147 -718
-200 -105 -13 -200 -28 -210 -34 -12 -6 -36 -7 -64 -2 -25 5 -108 9 -185 10
-313 1 -489 -82 -579 -273 -37 -80 -46 -126 -47 -244 -1 -127 8 -166 66 -289
57 -120 104 -184 178 -240 111 -85 166 -102 482 -144 202 -28 189 -23 225 -82
47 -76 122 -170 220 -273 158 -167 308 -260 576 -356 281 -101 496 -103 779
-10 52 17 128 48 265 108 64 28 224 141 290 205 89 85 173 185 245 291 35 52
67 89 80 92 11 2 106 16 210 30 321 45 359 60 491 191 69 67 89 95 126 175 96
200 99 390 10 565 -66 130 -160 195 -339 234 -105 23 -326 28 -412 9 -40 -8
-54 -8 -73 4 -13 8 -72 19 -133 25 -60 6 -195 25 -300 42 -240 38 -364 80
-472 157 -195 140 -342 180 -483 134z m181 -166 c40 -14 104 -52 218 -128 109
-72 423 -167 604 -181 80 -6 177 -23 231 -39 49 -15 62 -49 77 -197 11 -104 1
-311 -21 -435 -52 -289 -95 -385 -257 -567 -120 -136 -220 -216 -348 -281
-164 -82 -265 -118 -415 -149 -158 -32 -214 -33 -316 -3 -120 35 -245 75 -262
85 -9 5 -60 29 -112 54 -111 52 -250 159 -340 261 -106 120 -238 333 -261 418
-4 18 -13 50 -18 72 -6 22 -17 130 -26 240 -16 207 -12 325 17 440 15 59 39
75 116 75 29 0 61 4 71 9 9 5 63 15 119 21 106 11 278 52 417 97 98 32 131 48
173 84 34 30 165 106 217 126 41 16 64 15 116 -2z m-1432 -372 c23 -6 23 -7
15 -72 -22 -171 -6 -483 34 -674 21 -102 19 -106 -51 -89 -23 5 -80 15 -127
22 -195 28 -258 55 -340 148 -155 174 -177 428 -48 568 72 78 215 117 393 108
55 -3 111 -8 124 -11z m3009 7 c114 -15 186 -43 238 -95 54 -55 80 -105 95
-187 10 -54 9 -76 -4 -136 -48 -214 -200 -365 -393 -392 -38 -5 -101 -14 -141
-19 -39 -6 -83 -13 -96 -16 -41 -11 -41 -12 -2 180 29 140 40 351 26 505 -7
78 -9 145 -6 148 7 7 93 18 160 21 22 0 78 -4 123 -9z"/>
<path d="M2345 2865 c-81 -21 -134 -42 -250 -104 -138 -73 -231 -96 -495 -119
l-195 -18 3 -64 c4 -100 -8 -94 160 -86 283 14 512 65 621 140 46 32 173 91
228 105 54 15 119 -6 282 -90 162 -82 309 -115 598 -135 l101 -7 7 66 c4 36 4
70 0 76 -3 6 -27 11 -53 11 -65 0 -291 27 -385 46 -59 12 -107 31 -195 80
-127 69 -259 114 -331 113 -25 0 -68 -7 -96 -14z"/>
<path d="M2125 2134 c-542 -39 -652 -48 -663 -59 -10 -9 -11 -28 -5 -76 l8
-64 80 1 c44 1 247 7 450 14 204 7 602 10 885 8 l515 -3 3 72 3 72 -43 5
c-159 21 -318 28 -723 31 -253 1 -482 1 -510 -1z"/>
<path d="M2051 1529 l-29 -64 22 -17 c30 -26 165 -76 247 -93 93 -20 271 -19
362 1 73 16 226 84 247 109 15 19 6 42 -34 89 l-34 40 -39 -17 c-98 -44 -327
-68 -453 -47 -72 11 -212 44 -244 56 -12 5 -23 -9 -45 -57z"/>
</g>
</svg>
