<?xml version="1.0" standalone="no"?>
<!DOCTYPE svg PUBLIC "-//W3C//DTD SVG 20010904//EN"
 "http://www.w3.org/TR/2001/REC-SVG-20010904/DTD/svg10.dtd">
<svg version="1.0" xmlns="http://www.w3.org/2000/svg"
 width="484.000000pt" height="481.000000pt" viewBox="0 0 484.000000 481.000000"
 preserveAspectRatio="xMidYMid meet">
<metadata>
Created by potrace 1.16, written by Peter Selinger 2001-2019
</metadata>
<g transform="translate(0.000000,481.000000) scale(0.100000,-0.100000)"
fill="#0060A5" stroke="none">
<path d="M2219 4806 c-3 -3 -68 -14 -145 -25 -162 -23 -276 -49 -394 -90 -174
-60 -288 -111 -410 -181 -69 -40 -134 -77 -145 -84 -34 -19 -119 -79 -140 -99
-11 -10 -51 -43 -90 -72 -89 -68 -290 -274 -381 -390 -74 -94 -190 -278 -245
-386 -98 -195 -168 -413 -214 -663 -34 -182 -35 -199 -35 -426 0 -227 1 -244
35 -426 46 -250 116 -468 214 -663 55 -108 171 -292 245 -386 92 -119 292
-322 387 -396 42 -32 83 -64 90 -72 15 -14 103 -75 134 -93 11 -7 76 -44 144
-84 204 -118 509 -228 718 -259 113 -17 819 -14 918 3 301 54 628 191 905 379
164 112 392 325 530 495 179 222 339 533 425 828 66 227 70 265 70 674 0 348
-2 383 -22 480 -82 390 -249 748 -487 1039 -68 83 -271 289 -326 330 -19 14
-37 28 -40 32 -22 26 -136 108 -231 166 -167 103 -250 146 -379 196 -326 127
-540 168 -900 174 -124 3 -228 2 -231 -1z m519 -201 c911 -127 1659 -793 1882
-1673 54 -215 64 -297 64 -542 0 -245 -10 -327 -65 -544 -147 -581 -538 -1094
-1065 -1394 -543 -309 -1185 -380 -1784 -196 -721 222 -1298 810 -1500 1531
-94 335 -111 668 -50 994 183 975 979 1717 1960 1828 52 6 111 13 130 15 64 8
318 -4 428 -19z"/>
<path d="M2329 3315 c-67 -17 -149 -59 -240 -125 -82 -60 -109 -74 -212 -109
-98 -34 -147 -44 -337 -71 -336 -49 -374 -52 -566 -50 -194 2 -251 -4 -371
-40 -92 -28 -139 -55 -194 -113 -93 -97 -129 -205 -129 -385 0 -138 11 -182
79 -315 59 -115 90 -154 180 -225 88 -70 209 -102 536 -142 115 -14 129 -20
150 -59 58 -114 286 -363 407 -446 168 -116 395 -213 594 -254 262 -53 558 4
896 175 175 88 363 276 553 552 9 12 26 22 40 22 14 0 89 9 167 20 343 48 396
68 522 194 66 65 90 98 123 167 61 125 77 195 76 319 -1 165 -38 269 -133 373
-99 108 -256 157 -502 157 -79 -1 -163 -5 -186 -9 -31 -6 -52 -5 -70 4 -15 7
-61 16 -102 20 -104 9 -390 51 -476 69 -140 30 -240 72 -341 144 -175 125
-315 163 -464 127z m211 -212 c30 -14 87 -48 125 -74 155 -106 388 -181 685
-219 186 -23 215 -30 231 -50 28 -33 43 -145 42 -300 -2 -325 -81 -628 -199
-772 -154 -186 -198 -229 -307 -301 -162 -106 -338 -179 -527 -217 -80 -17
-158 -30 -174 -30 -57 0 -322 72 -386 106 -14 7 -72 35 -130 63 -179 86 -345
243 -478 454 -105 168 -134 252 -153 442 -17 173 -15 384 5 475 20 93 37 110
113 110 30 0 62 4 71 9 9 5 65 14 124 20 59 7 160 25 225 42 222 56 302 88
394 158 44 33 161 97 209 115 24 9 71 -2 130 -31z m-1463 -346 c3 -4 0 -51 -7
-104 -20 -154 -6 -392 36 -626 8 -49 14 -91 12 -92 -4 -4 -212 28 -295 46 -71
14 -156 61 -199 109 -50 55 -94 117 -94 133 0 7 -4 17 -9 23 -19 21 -46 133
-45 189 2 138 81 250 209 298 39 14 84 28 100 31 43 6 284 1 292 -7z m3033 3
c160 -30 257 -121 290 -272 16 -72 1 -154 -46 -251 -41 -83 -68 -117 -141
-179 -64 -53 -139 -80 -273 -98 -47 -6 -107 -15 -133 -19 l-49 -9 7 57 c3 31
12 81 20 111 33 135 41 392 19 597 l-7 62 34 4 c70 8 228 7 279 -3z"/>
<path d="M2335 2875 c-79 -20 -125 -39 -262 -109 -150 -77 -199 -89 -461 -111
-248 -22 -226 -12 -218 -97 4 -38 10 -76 13 -84 7 -18 47 -18 281 1 231 19
415 64 499 122 48 34 145 81 209 102 76 25 91 21 294 -77 80 -39 174 -77 210
-86 81 -19 262 -43 401 -52 l106 -7 6 48 c16 113 10 125 -61 125 -57 0 -287
28 -382 46 -47 9 -96 25 -110 34 -50 35 -217 113 -289 136 -82 27 -158 30
-236 9z"/>
<path d="M2030 2139 c-244 -16 -574 -49 -583 -58 -5 -5 -6 -39 -1 -83 l9 -73
85 1 c47 1 247 7 445 13 206 8 587 11 890 9 l530 -3 3 82 3 81 -48 6 c-166 22
-320 28 -733 31 -256 2 -526 -1 -600 -6z"/>
<path d="M2039 1533 c-16 -37 -28 -72 -25 -78 8 -21 135 -76 233 -101 89 -23
112 -25 248 -21 170 4 244 22 353 85 81 47 86 66 36 132 -21 27 -45 50 -53 50
-8 0 -42 -11 -75 -24 -93 -37 -270 -53 -405 -37 -58 7 -140 24 -181 37 -41 13
-81 24 -88 24 -7 0 -26 -30 -43 -67z"/>
</g>
</svg>
